<svg width="48" height="48" viewBox="0 0 48 48" fill="none" xmlns="http://www.w3.org/2000/svg">
<path d="M29.5467 33.5733L36.4533 26.6667H10.6667V21.3333H36.4533L29.5467 14.4267L33.3333 10.6667L46.6667 24L33.3333 37.3333L29.5467 33.5733ZM42.6667 0C44.0812 0 45.4377 0.561903 46.4379 1.5621C47.4381 2.56229 48 3.91885 48 5.33333V17.7867L42.6667 12.4533V5.33333H5.33333V42.6667H42.6667V35.5467L48 30.2133V42.6667C48 44.0812 47.4381 45.4377 46.4379 46.4379C45.4377 47.4381 44.0812 48 42.6667 48H5.33333C2.37333 48 0 45.6 0 42.6667V5.33333C0 2.37333 2.37333 0 5.33333 0H42.6667Z" fill="black"/>
</svg>
